<svg width="16" height="17" viewBox="0 0 16 17" fill="none" xmlns="http://www.w3.org/2000/svg">
<path d="M7.48099 16.0664C7.29311 15.8683 7.19473 15.6163 7.18585 15.3103C7.17765 15.0043 7.26749 14.7523 7.45537 14.5542L12.4769 9.26179H1.02479C0.734435 9.26179 0.490876 9.1581 0.294116 8.95072C0.0980387 8.74406 0 8.48772 0 8.18169C0 7.87567 0.0980387 7.61897 0.294116 7.41159C0.490876 7.20493 0.734435 7.1016 1.02479 7.1016H12.4769L7.45537 1.80915C7.26749 1.61114 7.17765 1.35912 7.18585 1.05309C7.19473 0.747063 7.29311 0.495042 7.48099 0.297025C7.66887 0.099008 7.90799 0 8.19835 0C8.48871 0 8.72782 0.099008 8.9157 0.297025L15.6793 7.42563C15.7818 7.51564 15.8546 7.62797 15.8976 7.76262C15.94 7.89799 15.9612 8.03768 15.9612 8.18169C15.9612 8.32571 15.94 8.46072 15.8976 8.58673C15.8546 8.71274 15.7818 8.82975 15.6793 8.93776L8.9157 16.0664C8.72782 16.2644 8.48871 16.3634 8.19835 16.3634C7.90799 16.3634 7.66887 16.2644 7.48099 16.0664Z" fill="#1F4668"/>
</svg>
