<svg width="18" height="23" viewBox="0 0 18 23" fill="none" xmlns="http://www.w3.org/2000/svg">
<path d="M9 13.6019C8.71667 13.6019 8.47933 13.4966 8.288 13.2859C8.096 13.076 8 12.8156 8 12.5048C8 12.1939 8.096 11.9331 8.288 11.7225C8.47933 11.5126 8.71667 11.4076 9 11.4076C9.28333 11.4076 9.521 11.5126 9.713 11.7225C9.90433 11.9331 10 12.1939 10 12.5048C10 12.8156 9.90433 13.076 9.713 13.2859C9.521 13.4966 9.28333 13.6019 9 13.6019ZM5 13.6019C4.71667 13.6019 4.479 13.4966 4.287 13.2859C4.09567 13.076 4 12.8156 4 12.5048C4 12.1939 4.09567 11.9331 4.287 11.7225C4.479 11.5126 4.71667 11.4076 5 11.4076C5.28333 11.4076 5.521 11.5126 5.713 11.7225C5.90433 11.9331 6 12.1939 6 12.5048C6 12.8156 5.90433 13.076 5.713 13.2859C5.521 13.4966 5.28333 13.6019 5 13.6019ZM13 13.6019C12.7167 13.6019 12.4793 13.4966 12.288 13.2859C12.096 13.076 12 12.8156 12 12.5048C12 12.1939 12.096 11.9331 12.288 11.7225C12.4793 11.5126 12.7167 11.4076 13 11.4076C13.2833 11.4076 13.5207 11.5126 13.712 11.7225C13.904 11.9331 14 12.1939 14 12.5048C14 12.8156 13.904 13.076 13.712 13.2859C13.5207 13.4966 13.2833 13.6019 13 13.6019ZM9 17.9905C8.71667 17.9905 8.47933 17.8852 8.288 17.6746C8.096 17.4646 8 17.2042 8 16.8934C8 16.5825 8.096 16.3221 8.288 16.1122C8.47933 15.9016 8.71667 15.7962 9 15.7962C9.28333 15.7962 9.521 15.9016 9.713 16.1122C9.90433 16.3221 10 16.5825 10 16.8934C10 17.2042 9.90433 17.4646 9.713 17.6746C9.521 17.8852 9.28333 17.9905 9 17.9905ZM5 17.9905C4.71667 17.9905 4.479 17.8852 4.287 17.6746C4.09567 17.4646 4 17.2042 4 16.8934C4 16.5825 4.09567 16.3221 4.287 16.1122C4.479 15.9016 4.71667 15.7962 5 15.7962C5.28333 15.7962 5.521 15.9016 5.713 16.1122C5.90433 16.3221 6 16.5825 6 16.8934C6 17.2042 5.90433 17.4646 5.713 17.6746C5.521 17.8852 5.28333 17.9905 5 17.9905ZM13 17.9905C12.7167 17.9905 12.4793 17.8852 12.288 17.6746C12.096 17.4646 12 17.2042 12 16.8934C12 16.5825 12.096 16.3221 12.288 16.1122C12.4793 15.9016 12.7167 15.7962 13 15.7962C13.2833 15.7962 13.5207 15.9016 13.712 16.1122C13.904 16.3221 14 16.5825 14 16.8934C14 17.2042 13.904 17.4646 13.712 17.6746C13.5207 17.8852 13.2833 17.9905 13 17.9905ZM2 22.3792C1.45 22.3792 0.979 22.1645 0.587 21.7351C0.195667 21.305 0 20.7883 0 20.1849V4.82466C0 4.22122 0.195667 3.70483 0.587 3.27548C0.979 2.84539 1.45 2.63035 2 2.63035H3V0.436035H5V2.63035H13V0.436035H15V2.63035H16C16.55 2.63035 17.021 2.84539 17.413 3.27548C17.8043 3.70483 18 4.22122 18 4.82466V20.1849C18 20.7883 17.8043 21.305 17.413 21.7351C17.021 22.1645 16.55 22.3792 16 22.3792H2ZM2 20.1849H16V9.21329H2V20.1849Z" fill="#1C1B1F"/>
</svg>
