<svg width="22" height="31" viewBox="0 0 22 31" fill="none" xmlns="http://www.w3.org/2000/svg">
<path d="M11 18.125C11.7334 18.125 12.3614 17.8289 12.884 17.2368C13.4058 16.6458 13.6667 15.9349 13.6667 15.1041C13.6667 14.2734 13.4058 13.562 12.884 12.9699C12.3614 12.3788 11.7334 12.0833 11 12.0833C10.2667 12.0833 9.63915 12.3788 9.11737 12.9699C8.59471 13.562 8.33337 14.2734 8.33337 15.1041C8.33337 15.9349 8.59471 16.6458 9.11737 17.2368C9.63915 17.8289 10.2667 18.125 11 18.125ZM5.66671 24.1666H16.3334V23.2981C16.3334 22.694 16.1889 22.1401 15.9 21.6367C15.6112 21.1332 15.2112 20.7556 14.7 20.5039C14.1223 20.2269 13.528 20.013 12.9174 19.8619C12.3058 19.7109 11.6667 19.6354 11 19.6354C10.3334 19.6354 9.69426 19.7109 9.08271 19.8619C8.47204 20.013 7.87782 20.2269 7.30004 20.5039C6.78893 20.7556 6.38893 21.1332 6.10004 21.6367C5.81115 22.1401 5.66671 22.694 5.66671 23.2981V24.1666ZM19 30.2083H3.00004C2.26671 30.2083 1.63915 29.9127 1.11737 29.3217C0.594707 28.7296 0.333374 28.0182 0.333374 27.1874V3.02083C0.333374 2.1901 0.594707 1.47869 1.11737 0.886612C1.63915 0.295537 2.26671 0 3.00004 0H13.6667L21.6667 9.06248V27.1874C21.6667 28.0182 21.4058 28.7296 20.884 29.3217C20.3614 29.9127 19.7334 30.2083 19 30.2083Z" fill="#1F4668"/>
</svg>
