<svg width="24" height="28" viewBox="0 0 24 28" fill="none" xmlns="http://www.w3.org/2000/svg">
<path d="M2.66667 27.1874C1.93333 27.1874 1.30533 26.8919 0.782667 26.3008C0.260889 25.7087 0 24.9973 0 24.1666V3.02083C0 2.1901 0.260889 1.47869 0.782667 0.886612C1.30533 0.295537 1.93333 0 2.66667 0H17.3333L24 7.55207V24.1666C24 24.9973 23.7391 25.7087 23.2173 26.3008C22.6947 26.8919 22.0667 27.1874 21.3333 27.1874H2.66667ZM5.33333 21.1458H18.6667V18.125H5.33333V21.1458ZM5.33333 15.1041H18.6667V12.0833H5.33333V15.1041ZM16 9.06248H21.3333L16 3.02083V9.06248ZM5.33333 9.06248H12V6.04165H5.33333V9.06248Z" fill="#FFDF2B"/>
</svg>
