<svg width="13" height="9" viewBox="0 0 13 9" fill="none" xmlns="http://www.w3.org/2000/svg">
<path d="M8.27183 2.95985C8.27183 3.56677 8.76384 4.05877 9.37076 4.05877H9.42726C10.0342 4.05877 10.5262 3.56677 10.5262 2.95985C10.5262 2.35293 10.0342 1.86092 9.42726 1.86092H9.37076C8.76384 1.86092 8.27183 2.35293 8.27183 2.95985ZM1.50876 2.95985C1.50876 3.56677 2.00077 4.05877 2.60769 4.05877H2.6642C3.27111 4.05877 3.76312 3.56677 3.76312 2.95985C3.76312 2.35293 3.27111 1.86092 2.6642 1.86092H2.60769C2.00077 1.86092 1.50876 2.35293 1.50876 2.95985ZM9.91339 8.45447C9.16331 8.45447 8.67982 7.65895 9.02211 6.99153C9.36547 6.32202 8.88047 5.52401 8.12805 5.52401H7.90892C7.27932 5.52401 6.76893 5.01362 6.76893 4.38402V2.95985C6.76893 1.5437 7.91694 0.395691 9.33309 0.395691H9.39901C10.8516 0.395691 12.0291 1.57322 12.0291 3.02577V4.5911C12.0291 5.20423 11.8832 5.80855 11.6034 6.35411L10.8058 7.9092C10.6342 8.24395 10.2896 8.45447 9.91339 8.45447ZM3.15032 8.45447C2.40024 8.45447 1.91675 7.65895 2.25904 6.99153C2.6024 6.32202 2.1174 5.52401 1.36498 5.52401H1.14585C0.516251 5.52401 0.00585938 5.01362 0.00585938 4.38402V2.95985C0.00585938 1.5437 1.15387 0.395691 2.57002 0.395691H2.63594C4.0885 0.395691 5.26602 1.57322 5.26602 3.02577V4.5911C5.26602 5.20423 5.1201 5.80855 4.8403 6.35411L4.04277 7.9092C3.87109 8.24395 3.52652 8.45447 3.15032 8.45447Z" fill="#FFDF2B"/>
</svg>
