<svg width="32" height="19" viewBox="0 0 32 19" fill="none" xmlns="http://www.w3.org/2000/svg">
<path d="M0 18.125V15.7461C0 14.6384 0.488889 13.7508 1.46667 13.0832C2.44444 12.4166 3.73333 12.0833 5.33333 12.0833C5.62222 12.0833 5.89467 12.0959 6.15067 12.1211C6.40578 12.1462 6.65556 12.184 6.9 12.2343C6.58889 12.7378 6.36089 13.2791 6.216 13.858C6.072 14.437 6 15.0538 6 15.7083V18.125H0ZM8 18.125V15.7083C8 14.072 8.73911 12.7439 10.2173 11.7238C11.6947 10.7048 13.6222 10.1953 16 10.1953C18.4 10.1953 20.3333 10.7048 21.8 11.7238C23.2667 12.7439 24 14.072 24 15.7083V18.125H8ZM26 18.125V15.7083C26 15.0538 25.9222 14.437 25.7667 13.858C25.6111 13.2791 25.3889 12.7378 25.1 12.2343C25.3444 12.184 25.5947 12.1462 25.8507 12.1211C26.1058 12.0959 26.3778 12.0833 26.6667 12.0833C28.2667 12.0833 29.5556 12.4166 30.5333 13.0832C31.5111 13.7508 32 14.6384 32 15.7461V18.125H26ZM5.33333 10.5729C4.6 10.5729 3.97244 10.2769 3.45067 9.68477C2.928 9.09369 2.66667 8.38279 2.66667 7.55207C2.66667 6.72134 2.928 6.00993 3.45067 5.41785C3.97244 4.82678 4.6 4.53124 5.33333 4.53124C6.06667 4.53124 6.69422 4.82678 7.216 5.41785C7.73867 6.00993 8 6.72134 8 7.55207C8 8.38279 7.73867 9.09369 7.216 9.68477C6.69422 10.2769 6.06667 10.5729 5.33333 10.5729ZM26.6667 10.5729C25.9333 10.5729 25.3053 10.2769 24.7827 9.68477C24.2609 9.09369 24 8.38279 24 7.55207C24 6.72134 24.2609 6.00993 24.7827 5.41785C25.3053 4.82678 25.9333 4.53124 26.6667 4.53124C27.4 4.53124 28.028 4.82678 28.5507 5.41785C29.0724 6.00993 29.3333 6.72134 29.3333 7.55207C29.3333 8.38279 29.0724 9.09369 28.5507 9.68477C28.028 10.2769 27.4 10.5729 26.6667 10.5729ZM16 9.06248C14.8889 9.06248 13.9444 8.62194 13.1667 7.74087C12.3889 6.85979 12 5.78992 12 4.53124C12 3.27256 12.3889 2.20269 13.1667 1.32161C13.9444 0.440537 14.8889 0 16 0C17.1111 0 18.0556 0.440537 18.8333 1.32161C19.6111 2.20269 20 3.27256 20 4.53124C20 5.78992 19.6111 6.85979 18.8333 7.74087C18.0556 8.62194 17.1111 9.06248 16 9.06248Z" fill="#1F4668"/>
</svg>
