<svg width="28" height="31" viewBox="0 0 28 31" fill="none" xmlns="http://www.w3.org/2000/svg">
<path d="M15.9 12.8008L10.2333 6.3815L12.1333 4.26692L15.9 8.53384L23.4667 0L25.3333 2.11458L15.9 12.8008ZM17.3333 30.095L8 27.1497V12.7252H10.6L18.8667 16.1992C19.6 16.5013 20.1947 17.0299 20.6507 17.7851C21.1058 18.5403 21.3333 19.371 21.3333 20.2773H18.6667C17.7333 20.2773 17 20.2395 16.4667 20.164C15.9333 20.0885 15.4667 19.9752 15.0667 19.8242L12.4 18.8424L12 20.2773L14.1 21.1458C14.7222 21.4227 15.2889 21.5989 15.8 21.6744C16.3111 21.7499 16.9111 21.7877 17.6 21.7877H24C25.4667 21.7877 26.5 22.0586 27.1 22.6003C27.7 23.141 28 23.8771 28 24.8085V26.3189L17.3333 30.095ZM0 29.3398V12.7252H5.33333V29.3398H0Z" fill="#1F4668"/>
</svg>
