<svg width="28" height="31" viewBox="0 0 28 31" fill="none" xmlns="http://www.w3.org/2000/svg">
<path d="M16.6666 19.6354C17.0444 19.6354 17.3724 19.4783 17.6506 19.1641C17.928 18.8489 18.0666 18.4774 18.0666 18.0494C18.0666 17.6215 17.928 17.2499 17.6506 16.9348C17.3724 16.6206 17.0444 16.4635 16.6666 16.4635C16.2888 16.4635 15.9613 16.6206 15.684 16.9348C15.4057 17.2499 15.2666 17.6215 15.2666 18.0494C15.2666 18.4774 15.4057 18.8489 15.684 19.1641C15.9613 19.4783 16.2888 19.6354 16.6666 19.6354ZM15.6666 14.802H17.6666C17.6666 14.072 17.7333 13.5368 17.8666 13.1965C18 12.8571 18.3111 12.4106 18.8 11.8567C19.4666 11.1015 19.9111 10.4908 20.1333 10.0246C20.3555 9.55941 20.4666 9.01213 20.4666 8.38279C20.4666 7.24998 20.1164 6.32511 19.416 5.60816C18.7164 4.89021 17.8 4.53124 16.6666 4.53124C15.7555 4.53124 14.9613 4.82073 14.284 5.39973C13.6057 5.97872 13.1333 6.74651 12.8666 7.70311L14.6666 8.53383C14.8666 7.9045 15.1391 7.43224 15.484 7.11707C15.828 6.8029 16.2222 6.64582 16.6666 6.64582C17.2 6.64582 17.6333 6.81549 17.9666 7.15483C18.3 7.49517 18.4666 7.95484 18.4666 8.53383C18.4666 8.88626 18.3777 9.21956 18.2 9.53373C18.0222 9.8489 17.7111 10.2456 17.2666 10.7239C16.5333 11.454 16.0835 12.0264 15.9173 12.4413C15.7502 12.8571 15.6666 13.6441 15.6666 14.802ZM8.66663 24.1666C7.93329 24.1666 7.30574 23.8711 6.78396 23.28C6.26129 22.6879 5.99996 21.9765 5.99996 21.1458V3.02083C5.99996 2.1901 6.26129 1.47869 6.78396 0.886612C7.30574 0.295537 7.93329 0 8.66663 0H24.6666C25.4 0 26.028 0.295537 26.5506 0.886612C27.0724 1.47869 27.3333 2.1901 27.3333 3.02083V21.1458C27.3333 21.9765 27.0724 22.6879 26.5506 23.28C26.028 23.8711 25.4 24.1666 24.6666 24.1666H8.66663ZM3.33329 30.2083C2.59996 30.2083 1.9724 29.9127 1.45063 29.3217C0.927959 28.7296 0.666626 28.0182 0.666626 27.1874V6.04165H3.33329V27.1874H22V30.2083H3.33329Z" fill="#1F4668"/>
</svg>
