<?xml version="1.0" standalone="no"?>
<!DOCTYPE svg PUBLIC "-//W3C//DTD SVG 20010904//EN"
 "http://www.w3.org/TR/2001/REC-SVG-20010904/DTD/svg10.dtd">
<svg version="1.0" xmlns="http://www.w3.org/2000/svg"
 width="24.000000pt" height="24.000000pt" viewBox="0 0 24.000000 24.000000"
 preserveAspectRatio="xMidYMid meet">

<g transform="translate(0.000000,24.000000) scale(0.100000,-0.100000)"
fill="#000000" stroke="none">
<path d="M24 186 c-3 -8 -4 -27 -2 -43 2 -24 8 -28 36 -31 17 -2 32 -7 32 -11
0 -14 -36 -41 -53 -41 -9 0 -17 -4 -17 -10 0 -28 66 5 80 40 6 15 10 45 8 66
-3 37 -5 39 -41 42 -26 2 -39 -1 -43 -12z"/>
<path d="M134 186 c-3 -8 -4 -27 -2 -43 2 -24 8 -28 36 -31 17 -2 32 -7 32
-11 0 -14 -36 -41 -53 -41 -9 0 -17 -4 -17 -10 0 -28 66 5 80 40 6 15 10 45 8
66 -3 37 -5 39 -41 42 -26 2 -39 -1 -43 -12z"/>
</g>
</svg>
