<svg width="45" height="35" viewBox="0 0 45 35" fill="none" xmlns="http://www.w3.org/2000/svg">
<path d="M28.417 31.7841C27.4768 31.822 26.5806 31.8509 25.7282 31.8706C24.8744 31.8889 24.1167 31.898 23.4551 31.898H21.3137C18.8415 31.898 16.526 31.86 14.3672 31.7841C12.5217 31.7081 10.7021 31.6033 8.90814 31.4696C7.11562 31.3375 5.81894 31.1575 5.01808 30.9297C4.11277 30.6638 3.32932 30.1702 2.66775 29.4487C2.00617 28.7272 1.55352 27.8728 1.30978 26.8854C1.10086 26.0121 0.935814 24.9488 0.814642 23.6957C0.692076 22.4425 0.595974 21.2463 0.526334 20.1071C0.456695 18.7401 0.421875 17.354 0.421875 15.949C0.421875 14.544 0.456695 13.1579 0.526334 11.7909C0.595974 10.6517 0.692076 9.45549 0.814642 8.20236C0.935814 6.94922 1.10086 5.88596 1.30978 5.01256C1.55352 4.02524 2.00617 3.17083 2.66775 2.44933C3.32932 1.72783 4.11277 1.23417 5.01808 0.968354C5.81894 0.740512 7.11562 0.559756 8.90814 0.426088C10.7021 0.293939 12.5217 0.189892 14.3672 0.113945C16.526 0.0379971 18.8415 2.28882e-05 21.3137 2.28882e-05C23.7859 2.28882e-05 26.1014 0.0379971 28.2603 0.113945C30.1057 0.189892 31.9254 0.293939 33.7193 0.426088C35.5118 0.559756 36.8085 0.740512 37.6094 0.968354C38.5147 1.23417 39.2981 1.72783 39.9597 2.44933C40.6213 3.17083 41.0739 4.02524 41.3177 5.01256C41.5266 5.88596 41.6916 6.94922 41.8128 8.20236C41.9354 9.45549 42.0315 10.6517 42.1011 11.7909C42.1708 13.1579 42.2056 14.544 42.2056 15.949V16.9173C41.544 16.6135 40.865 16.3766 40.1686 16.2065C39.4722 16.0348 38.7584 15.949 38.0272 15.949C35.1372 15.949 32.6733 17.0594 30.6357 19.2801C28.5994 21.5023 27.5813 24.1893 27.5813 27.3411C27.5813 28.1386 27.6509 28.9072 27.7902 29.6469C27.9295 30.3881 28.1384 31.1005 28.417 31.7841ZM17.1354 22.7843L27.9991 15.949L17.1354 9.11373V22.7843ZM35.938 34.1764V29.6196H31.7596V25.0627H35.938V20.5059H40.1164V25.0627H44.2948V29.6196H40.1164V34.1764H35.938Z" fill="#FF000F"/>
</svg>
