<svg width="32" height="29" viewBox="0 0 32 29" fill="none" xmlns="http://www.w3.org/2000/svg">
<path d="M20.419 26.2615C19.7333 26.2928 19.0796 26.3167 18.4579 26.333C17.8352 26.3481 17.2825 26.3556 16.8 26.3556H15.2381C13.4349 26.3556 11.746 26.3242 10.1714 26.2615C8.8254 26.1987 7.49816 26.1121 6.18971 26.0017C4.88229 25.8925 3.93651 25.7438 3.35238 25.5555C2.69206 25.3359 2.12064 24.928 1.6381 24.3318C1.15556 23.7357 0.825397 23.0298 0.647619 22.214C0.495238 21.4923 0.374857 20.6138 0.286476 19.5784C0.197079 18.543 0.126984 17.5547 0.0761904 16.6134C0.0253968 15.4839 0 14.3387 0 13.1778C0 12.0169 0.0253968 10.8716 0.0761904 9.74212C0.126984 8.80084 0.197079 7.81251 0.286476 6.77711C0.374857 5.7417 0.495238 4.86318 0.647619 4.14154C0.825397 3.32577 1.15556 2.61982 1.6381 2.02368C2.12064 1.42754 2.69206 1.01965 3.35238 0.800022C3.93651 0.611767 4.88229 0.462417 6.18971 0.351975C7.49816 0.242787 8.8254 0.156818 10.1714 0.0940666C11.746 0.0313151 13.4349 -6.10352e-05 15.2381 -6.10352e-05C17.0413 -6.10352e-05 18.7302 0.0313151 20.3048 0.0940666C21.6508 0.156818 22.978 0.242787 24.2865 0.351975C25.5939 0.462417 26.5397 0.611767 27.1238 0.800022C27.7841 1.01965 28.3556 1.42754 28.8381 2.02368C29.3206 2.61982 29.6508 3.32577 29.8286 4.14154C29.981 4.86318 30.1013 5.7417 30.1897 6.77711C30.2791 7.81251 30.3492 8.80084 30.4 9.74212C30.4508 10.8716 30.4762 12.0169 30.4762 13.1778V13.9778C29.9937 13.7268 29.4984 13.5311 28.9905 13.3905C28.4825 13.2487 27.9619 13.1778 27.4286 13.1778C25.3206 13.1778 23.5236 14.0952 22.0373 15.93C20.5521 17.7662 19.8095 19.9863 19.8095 22.5905C19.8095 23.2494 19.8603 23.8844 19.9619 24.4956C20.0635 25.1081 20.2159 25.6967 20.419 26.2615ZM12.1905 18.8254L20.1143 13.1778L12.1905 7.53012V18.8254ZM25.9048 28.2381V24.473H22.8571V20.7079H25.9048V16.9429H28.9524V20.7079H32V24.473H28.9524V28.2381H25.9048Z" fill="#FF000F"/>
</svg>
